<?xml version="1.0" encoding="UTF-8"?>
<!--
    CYBER TERA icon sprite. Each <symbol> uses viewBox="0 0 24 24" and can
    be referenced from HTML via:
        <svg class="icon" aria-hidden="true"><use href="/images/icons.svg#home"/></svg>
    Paths are simple, stroke/fill-agnostic, and use currentColor so they
    inherit the surrounding text colour.
-->
<svg xmlns="http://www.w3.org/2000/svg" style="display:none" aria-hidden="true">
    <symbol id="home" viewBox="0 0 24 24" fill="none" stroke="currentColor" stroke-width="2" stroke-linecap="round" stroke-linejoin="round">
        <path d="M3 11.5 12 4l9 7.5V20a1 1 0 0 1-1 1h-5v-6h-6v6H4a1 1 0 0 1-1-1Z"/>
    </symbol>
    <symbol id="cogs" viewBox="0 0 24 24" fill="none" stroke="currentColor" stroke-width="2" stroke-linecap="round" stroke-linejoin="round">
        <circle cx="12" cy="12" r="3"/>
        <path d="M19.4 15a1.7 1.7 0 0 0 .3 1.8l.1.1a2 2 0 1 1-2.8 2.8l-.1-.1a1.7 1.7 0 0 0-1.8-.3 1.7 1.7 0 0 0-1 1.5V21a2 2 0 1 1-4 0v-.1a1.7 1.7 0 0 0-1.1-1.5 1.7 1.7 0 0 0-1.8.3l-.1.1a2 2 0 1 1-2.8-2.8l.1-.1A1.7 1.7 0 0 0 4.6 15a1.7 1.7 0 0 0-1.5-1H3a2 2 0 1 1 0-4h.1a1.7 1.7 0 0 0 1.5-1.1 1.7 1.7 0 0 0-.3-1.8l-.1-.1a2 2 0 1 1 2.8-2.8l.1.1a1.7 1.7 0 0 0 1.8.3H9a1.7 1.7 0 0 0 1-1.5V3a2 2 0 1 1 4 0v.1a1.7 1.7 0 0 0 1 1.5 1.7 1.7 0 0 0 1.8-.3l.1-.1a2 2 0 1 1 2.8 2.8l-.1.1a1.7 1.7 0 0 0-.3 1.8V9a1.7 1.7 0 0 0 1.5 1H21a2 2 0 1 1 0 4h-.1a1.7 1.7 0 0 0-1.5 1Z"/>
    </symbol>
    <symbol id="briefcase" viewBox="0 0 24 24" fill="none" stroke="currentColor" stroke-width="2" stroke-linecap="round" stroke-linejoin="round">
        <rect x="2" y="7" width="20" height="14" rx="2"/>
        <path d="M16 21V5a2 2 0 0 0-2-2h-4a2 2 0 0 0-2 2v16"/>
    </symbol>
    <symbol id="info-circle" viewBox="0 0 24 24" fill="none" stroke="currentColor" stroke-width="2" stroke-linecap="round" stroke-linejoin="round">
        <circle cx="12" cy="12" r="10"/>
        <path d="M12 16v-4M12 8h.01"/>
    </symbol>
    <symbol id="envelope" viewBox="0 0 24 24" fill="none" stroke="currentColor" stroke-width="2" stroke-linecap="round" stroke-linejoin="round">
        <rect x="2" y="4" width="20" height="16" rx="2"/>
        <path d="m22 7-10 6L2 7"/>
    </symbol>
    <symbol id="phone" viewBox="0 0 24 24" fill="none" stroke="currentColor" stroke-width="2" stroke-linecap="round" stroke-linejoin="round">
        <path d="M22 16.92v3a2 2 0 0 1-2.18 2 19.8 19.8 0 0 1-8.63-3.07 19.5 19.5 0 0 1-6-6 19.8 19.8 0 0 1-3.07-8.67A2 2 0 0 1 4.11 2h3a2 2 0 0 1 2 1.72c.13.96.37 1.9.72 2.81a2 2 0 0 1-.45 2.11L8.09 9.91a16 16 0 0 0 6 6l1.27-1.27a2 2 0 0 1 2.11-.45c.9.34 1.85.58 2.81.72A2 2 0 0 1 22 16.92Z"/>
    </symbol>
    <symbol id="map-marker" viewBox="0 0 24 24" fill="none" stroke="currentColor" stroke-width="2" stroke-linecap="round" stroke-linejoin="round">
        <path d="M20 10c0 6-8 12-8 12s-8-6-8-12a8 8 0 0 1 16 0Z"/>
        <circle cx="12" cy="10" r="3"/>
    </symbol>
    <symbol id="file-signature" viewBox="0 0 24 24" fill="none" stroke="currentColor" stroke-width="2" stroke-linecap="round" stroke-linejoin="round">
        <path d="M14 2H6a2 2 0 0 0-2 2v16a2 2 0 0 0 2 2h12a2 2 0 0 0 2-2V8Z"/>
        <path d="M14 2v6h6"/>
        <path d="M10 14s1-1 2-1 2 2 3 2 2-1 2-1"/>
        <path d="M8 18h8"/>
    </symbol>
    <symbol id="video" viewBox="0 0 24 24" fill="none" stroke="currentColor" stroke-width="2" stroke-linecap="round" stroke-linejoin="round">
        <rect x="2" y="6" width="14" height="12" rx="2"/>
        <path d="m22 8-6 4 6 4z"/>
    </symbol>
    <symbol id="network-wired" viewBox="0 0 24 24" fill="none" stroke="currentColor" stroke-width="2" stroke-linecap="round" stroke-linejoin="round">
        <rect x="9" y="2" width="6" height="6" rx="1"/>
        <rect x="2" y="16" width="6" height="6" rx="1"/>
        <rect x="16" y="16" width="6" height="6" rx="1"/>
        <path d="M12 8v4M5 16v-2h14v2M12 12v4"/>
    </symbol>
    <symbol id="bolt" viewBox="0 0 24 24" fill="none" stroke="currentColor" stroke-width="2" stroke-linecap="round" stroke-linejoin="round">
        <path d="M13 2 3 14h9l-1 8 10-12h-9Z"/>
    </symbol>
    <symbol id="desktop" viewBox="0 0 24 24" fill="none" stroke="currentColor" stroke-width="2" stroke-linecap="round" stroke-linejoin="round">
        <rect x="2" y="3" width="20" height="14" rx="2"/>
        <path d="M8 21h8M12 17v4"/>
    </symbol>
    <symbol id="door-closed" viewBox="0 0 24 24" fill="none" stroke="currentColor" stroke-width="2" stroke-linecap="round" stroke-linejoin="round">
        <path d="M18 20V6a2 2 0 0 0-2-2H8a2 2 0 0 0-2 2v14"/>
        <path d="M4 20h16"/>
        <circle cx="14" cy="13" r="0.8" fill="currentColor"/>
    </symbol>
    <symbol id="bell" viewBox="0 0 24 24" fill="none" stroke="currentColor" stroke-width="2" stroke-linecap="round" stroke-linejoin="round">
        <path d="M18 16v-5a6 6 0 1 0-12 0v5l-2 2h16Z"/>
        <path d="M10 21a2 2 0 0 0 4 0"/>
    </symbol>
    <symbol id="mobile" viewBox="0 0 24 24" fill="none" stroke="currentColor" stroke-width="2" stroke-linecap="round" stroke-linejoin="round">
        <rect x="7" y="2" width="10" height="20" rx="2"/>
        <path d="M11 18h2"/>
    </symbol>
    <symbol id="server" viewBox="0 0 24 24" fill="none" stroke="currentColor" stroke-width="2" stroke-linecap="round" stroke-linejoin="round">
        <rect x="2" y="3" width="20" height="7" rx="1"/>
        <rect x="2" y="14" width="20" height="7" rx="1"/>
        <path d="M6 7h.01M6 18h.01"/>
    </symbol>
    <symbol id="wifi" viewBox="0 0 24 24" fill="none" stroke="currentColor" stroke-width="2" stroke-linecap="round" stroke-linejoin="round">
        <path d="M5 12a10 10 0 0 1 14 0"/>
        <path d="M8.5 15.5a5 5 0 0 1 7 0"/>
        <path d="M2 8.5a15 15 0 0 1 20 0"/>
        <circle cx="12" cy="19" r="1" fill="currentColor"/>
    </symbol>
    <symbol id="headset" viewBox="0 0 24 24" fill="none" stroke="currentColor" stroke-width="2" stroke-linecap="round" stroke-linejoin="round">
        <path d="M3 18v-6a9 9 0 0 1 18 0v6"/>
        <path d="M21 19a2 2 0 0 1-2 2h-1v-6h3ZM3 19a2 2 0 0 0 2 2h1v-6H3Z"/>
    </symbol>
    <symbol id="tools" viewBox="0 0 24 24" fill="none" stroke="currentColor" stroke-width="2" stroke-linecap="round" stroke-linejoin="round">
        <path d="m14.7 6.3 2.3-2.3a5 5 0 0 0-7 7L3 18l3 3 7-7a5 5 0 0 0 7-7Z"/>
    </symbol>
    <symbol id="industry" viewBox="0 0 24 24" fill="none" stroke="currentColor" stroke-width="2" stroke-linecap="round" stroke-linejoin="round">
        <path d="M2 20V9l6 4V9l6 4V4h6v16Z"/>
    </symbol>
    <symbol id="shield" viewBox="0 0 24 24" fill="none" stroke="currentColor" stroke-width="2" stroke-linecap="round" stroke-linejoin="round">
        <path d="M12 2 4 5v7c0 5 3.5 8.5 8 10 4.5-1.5 8-5 8-10V5Z"/>
    </symbol>
    <symbol id="check-circle" viewBox="0 0 24 24" fill="none" stroke="currentColor" stroke-width="2" stroke-linecap="round" stroke-linejoin="round">
        <circle cx="12" cy="12" r="10"/>
        <path d="m8 12 3 3 5-6"/>
    </symbol>
    <symbol id="sparkles" viewBox="0 0 24 24" fill="none" stroke="currentColor" stroke-width="2" stroke-linecap="round" stroke-linejoin="round">
        <path d="M12 3 10.3 8.3 5 10l5.3 1.7L12 17l1.7-5.3L19 10l-5.3-1.7Z"/>
        <path d="M19 15 18 18l-3 1 3 1 1 3 1-3 3-1-3-1Z"/>
        <path d="M5 3 4.3 5.3 2 6l2.3.7L5 9l.7-2.3L8 6l-2.3-.7Z"/>
    </symbol>
    <symbol id="brain" viewBox="0 0 24 24" fill="none" stroke="currentColor" stroke-width="2" stroke-linecap="round" stroke-linejoin="round">
        <path d="M9 4a3 3 0 0 0-3 3v1a4 4 0 0 0 0 8v1a3 3 0 0 0 5 2.2V4.8A3 3 0 0 0 9 4Z"/>
        <path d="M15 4a3 3 0 0 1 3 3v1a4 4 0 0 1 0 8v1a3 3 0 0 1-5 2.2V4.8A3 3 0 0 1 15 4Z"/>
        <path d="M8 10h3M13 10h3M8 15h3M13 15h3"/>
    </symbol>
    <symbol id="lock" viewBox="0 0 24 24" fill="none" stroke="currentColor" stroke-width="2" stroke-linecap="round" stroke-linejoin="round">
        <rect x="4" y="11" width="16" height="10" rx="2"/>
        <path d="M8 11V7a4 4 0 0 1 8 0v4"/>
    </symbol>
    <symbol id="alert" viewBox="0 0 24 24" fill="none" stroke="currentColor" stroke-width="2" stroke-linecap="round" stroke-linejoin="round">
        <path d="M12 3 2 21h20Z"/>
        <path d="M12 9v5"/>
        <path d="M12 18h.01"/>
    </symbol>
    <symbol id="eye" viewBox="0 0 24 24" fill="none" stroke="currentColor" stroke-width="2" stroke-linecap="round" stroke-linejoin="round">
        <path d="M2 12s3.5-7 10-7 10 7 10 7-3.5 7-10 7S2 12 2 12Z"/>
        <circle cx="12" cy="12" r="3"/>
    </symbol>
    <symbol id="clock" viewBox="0 0 24 24" fill="none" stroke="currentColor" stroke-width="2" stroke-linecap="round" stroke-linejoin="round">
        <circle cx="12" cy="12" r="9"/>
        <path d="M12 7v5l3 2"/>
    </symbol>
    <symbol id="handshake" viewBox="0 0 24 24" fill="none" stroke="currentColor" stroke-width="2" stroke-linecap="round" stroke-linejoin="round">
        <path d="m8 12 3-3a3 3 0 0 1 4 0l1 1"/>
        <path d="m2 12 4-4 5 5"/>
        <path d="m22 12-4-4-6 6 3 3a2 2 0 0 0 3 0l4-5Z"/>
        <path d="m7 13 5 5a2 2 0 0 0 3 0"/>
    </symbol>
    <symbol id="box" viewBox="0 0 24 24" fill="none" stroke="currentColor" stroke-width="2" stroke-linecap="round" stroke-linejoin="round">
        <path d="M21 8 12 3 3 8l9 5Z"/>
        <path d="M3 8v8l9 5 9-5V8"/>
        <path d="M12 13v8"/>
    </symbol>
    <symbol id="link" viewBox="0 0 24 24" fill="none" stroke="currentColor" stroke-width="2" stroke-linecap="round" stroke-linejoin="round">
        <path d="M10 13a5 5 0 0 0 7.1 0l2-2a5 5 0 0 0-7.1-7.1l-1.1 1.1"/>
        <path d="M14 11a5 5 0 0 0-7.1 0l-2 2A5 5 0 0 0 12 20.1l1.1-1.1"/>
    </symbol>
    <symbol id="arrow-up" viewBox="0 0 24 24" fill="none" stroke="currentColor" stroke-width="2" stroke-linecap="round" stroke-linejoin="round">
        <path d="M12 19V5"/>
        <path d="m5 12 7-7 7 7"/>
    </symbol>
    <symbol id="test-tube" viewBox="0 0 24 24" fill="none" stroke="currentColor" stroke-width="2" stroke-linecap="round" stroke-linejoin="round">
        <path d="M10 2v6L5 19a3 3 0 0 0 3 3h8a3 3 0 0 0 3-3L14 8V2"/>
        <path d="M8 2h8"/>
        <path d="M7 15h10"/>
    </symbol>
    <symbol id="map" viewBox="0 0 24 24" fill="none" stroke="currentColor" stroke-width="2" stroke-linecap="round" stroke-linejoin="round">
        <path d="m3 6 6-3 6 3 6-3v15l-6 3-6-3-6 3Z"/>
        <path d="M9 3v15M15 6v15"/>
    </symbol>
    <symbol id="zap" viewBox="0 0 24 24" fill="none" stroke="currentColor" stroke-width="2" stroke-linecap="round" stroke-linejoin="round">
        <path d="M13 2 4 14h7l-1 8 10-13h-7Z"/>
    </symbol>
    <symbol id="layers" viewBox="0 0 24 24" fill="none" stroke="currentColor" stroke-width="2" stroke-linecap="round" stroke-linejoin="round">
        <path d="m12 2 10 5-10 5L2 7Z"/>
        <path d="m2 12 10 5 10-5"/>
        <path d="m2 17 10 5 10-5"/>
    </symbol>
    <symbol id="user-check" viewBox="0 0 24 24" fill="none" stroke="currentColor" stroke-width="2" stroke-linecap="round" stroke-linejoin="round">
        <path d="M16 21v-2a4 4 0 0 0-4-4H6a4 4 0 0 0-4 4v2"/>
        <circle cx="9" cy="7" r="4"/>
        <path d="m16 11 2 2 4-4"/>
    </symbol>
    <symbol id="activity" viewBox="0 0 24 24" fill="none" stroke="currentColor" stroke-width="2" stroke-linecap="round" stroke-linejoin="round">
        <path d="M22 12h-4l-3 8-6-16-3 8H2"/>
    </symbol>
    <symbol id="drafting-compass" viewBox="0 0 24 24" fill="none" stroke="currentColor" stroke-width="2" stroke-linecap="round" stroke-linejoin="round">
        <circle cx="12" cy="5" r="2"/>
        <path d="m12 7 6 14"/>
        <path d="m12 7-6 14"/>
        <path d="M8 17h8"/>
        <path d="M12 7v5"/>
    </symbol>
    <symbol id="diagram" viewBox="0 0 24 24" fill="none" stroke="currentColor" stroke-width="2" stroke-linecap="round" stroke-linejoin="round">
        <rect x="3" y="3" width="6" height="6" rx="1"/>
        <rect x="15" y="3" width="6" height="6" rx="1"/>
        <rect x="9" y="15" width="6" height="6" rx="1"/>
        <path d="M9 6h6M12 9v6"/>
    </symbol>
    <symbol id="code" viewBox="0 0 24 24" fill="none" stroke="currentColor" stroke-width="2" stroke-linecap="round" stroke-linejoin="round">
        <path d="m8 9-4 3 4 3"/>
        <path d="m16 9 4 3-4 3"/>
        <path d="m14 4-4 16"/>
    </symbol>
    <symbol id="lock-shield" viewBox="0 0 24 24" fill="none" stroke="currentColor" stroke-width="2" stroke-linecap="round" stroke-linejoin="round">
        <path d="M12 2 4 5v7c0 5 3.5 8.5 8 10 4.5-1.5 8-5 8-10V5Z"/>
        <rect x="8" y="11" width="8" height="6" rx="1"/>
        <path d="M10 11V9a2 2 0 0 1 4 0v2"/>
    </symbol>
    <symbol id="whatsapp" viewBox="0 0 32 32" fill="currentColor">
        <path d="M19.11 17.205c-.372 0-1.088 1.39-1.518 1.39a.63.63 0 0 1-.315-.1c-.802-.402-1.504-.817-2.163-1.447-.545-.516-1.146-1.29-1.46-1.963a.426.426 0 0 1-.073-.215c0-.33.99-.945.99-1.49 0-.143-.73-2.09-.832-2.335-.143-.372-.214-.487-.6-.487-.187 0-.36-.043-.53-.043-.302 0-.53.115-.746.315-.688.645-1.032 1.318-1.06 2.264v.114c-.015.99.472 1.977 1.017 2.78 1.23 1.82 2.506 3.41 4.554 4.34.616.287 2.035.846 2.722.846.989 0 2.116-.76 2.415-1.832.074-.3.13-.61.13-.916 0-.158-.041-.259-.157-.358-.241-.18-2.235-.934-2.435-.934zM16.002 4C9.373 4 4 9.373 4 16c0 2.355.682 4.554 1.86 6.403L4 28.95l6.668-2.134A11.98 11.98 0 0 0 16.002 28C22.628 28 28 22.627 28 16c0-6.625-5.372-12-12-12z"/>
    </symbol>
    <symbol id="facebook" viewBox="0 0 24 24" fill="currentColor">
        <path d="M22 12a10 10 0 1 0-11.56 9.88v-6.99H7.9V12h2.54V9.8c0-2.51 1.49-3.9 3.78-3.9 1.1 0 2.24.2 2.24.2v2.46h-1.26c-1.24 0-1.63.77-1.63 1.56V12h2.77l-.44 2.89h-2.33v6.99A10 10 0 0 0 22 12Z"/>
    </symbol>
    <symbol id="twitter" viewBox="0 0 24 24" fill="currentColor">
        <path d="M18.244 2.25h3.308l-7.227 8.26 8.502 11.24H16.17l-5.214-6.817-5.966 6.817H1.68l7.73-8.835L1.254 2.25H8.08l4.713 6.231 5.452-6.231Zm-1.16 17.52h1.833L7.084 4.126H5.117L17.083 19.77Z"/>
    </symbol>
    <symbol id="instagram" viewBox="0 0 24 24" fill="none" stroke="currentColor" stroke-width="2" stroke-linecap="round" stroke-linejoin="round">
        <rect x="3" y="3" width="18" height="18" rx="5"/>
        <circle cx="12" cy="12" r="4"/>
        <circle cx="17.5" cy="6.5" r="1" fill="currentColor"/>
    </symbol>
    <symbol id="linkedin" viewBox="0 0 24 24" fill="currentColor">
        <path d="M20.45 20.45h-3.56v-5.57c0-1.33-.02-3.04-1.85-3.04-1.85 0-2.14 1.44-2.14 2.93v5.68H9.34V9h3.41v1.56h.05c.47-.9 1.63-1.85 3.36-1.85 3.6 0 4.27 2.37 4.27 5.46v6.28ZM5.34 7.43a2.06 2.06 0 1 1 0-4.12 2.06 2.06 0 0 1 0 4.12ZM7.12 20.45H3.56V9h3.56v11.45Z"/>
    </symbol>
</svg>
