<?xml version="1.0" encoding="utf-8"?>
<!-- Generator: Adobe Illustrator 24.1.3, SVG Export Plug-In . SVG Version: 6.00 Build 0)  -->
<svg version="1.1" id="Layer_1" xmlns="http://www.w3.org/2000/svg" xmlns:xlink="http://www.w3.org/1999/xlink" x="0px" y="0px"
	 viewBox="0 0 2534.1 1080" style="enable-background:new 0 0 2534.1 1080;" xml:space="preserve">
<style type="text/css">
	.st0{fill:#FFFFFF;stroke:#000000;stroke-width:3;stroke-miterlimit:10;}
</style>
<g>
	<g>
		<g>
			<path class="st0" d="M913.4,531.1c-14-15.5-37.5-17.5-49.3-0.7c-8.7,12.4-18.3,12.1-30,11.9c-8.3-0.1-16.8-1.1-24.9,0.2
				c-21.6,3.3-38.4-3.6-50.8-21.4c-6.5-9.3-15.5-11-26.3-10.9c-49.5,0.5-99,0.1-148.4,0.3c-8.4,0-14.8-1.1-19.6-9.5
				c-5.8-10-15.2-15.6-26.3-14.3c-17.8-0.1-31.9,11.2-35.1,27.1c-2.8,13.8,6.3,29.8,20.3,36.2c14,6.4,32.7,2.2,40.6-11.3
				c4.9-8.4,10.6-9.8,19-9.7c39.4,0.3,78.9,1.9,118.2-0.5c26.4-1.6,46.8,4.4,62.2,26c5,7,11.9,9,20.6,8.8c20.6-0.6,41.2,0,61.7-0.3
				c6.6-0.1,10.9,1.2,14.8,7.6c11.2,18.1,33.3,21.2,50,8C924.6,567.4,926.1,545.3,913.4,531.1z M538.1,531.9
				c-9.5-0.2-14.3-3.6-14.7-11.6c-0.4-8.6,5.4-13.3,12.7-13.7c8-0.4,13,5.8,12.9,13.5C548.9,527.3,544.6,532.3,538.1,531.9z
				 M901.5,553.8c-0.6,7.3-6.5,10.7-12.3,12.2c-8.4-1.6-13.5-5.5-13.2-13.2c0.3-7.3,5.2-12.8,12.4-12.4
				C895.5,540.8,902.2,545.2,901.5,553.8z"/>
		</g>
		<g>
			<path class="st0" d="M775.9,687.6c-3.2-12.6-10.6-21.6-23.2-24c-14.5-2.8-28.6-0.4-36.8,13.6c-4.8,8.2-10.9,10.2-19.4,9.5
				c-5.7-0.5-11.4-0.6-17.1,0c-13.5,1.5-23.2-3.2-31.3-14.5c-8.7-12.1-20.5-17.7-37-17.2c-47.7,1.3-95.5,0.4-143.3,0.6
				c-7.1,0-11.8-1.3-15.9-8.2c-8.1-13.5-29.6-17.8-43.3-10.2c-13.5,7.6-18.2,19.5-16.8,34.2c1.3,13.7,9.5,22.9,21.7,27.1
				c13.3,4.5,25.8,1.5,35.8-9.5c5.2-5.8,8.2-13.1,19.3-12.9c48.2,0.9,96.4,0.5,144.6,0.3c6.7,0,12.3,1.5,16,6.9
				c13.6,20,32.7,25.8,55.8,22.4c4.3-0.6,8.8,0.2,13.1-0.2c7.6-0.6,12.8,1.4,17.4,8.5c6.3,9.8,15.4,16.9,28.1,15.1
				c8.2,0.7,15.3-0.9,21.2-6.3C775.3,713.2,779.5,701.8,775.9,687.6z M424.8,678.9c-7.9,0.2-11.8-4.4-12.4-15.3
				c-0.5-5.2,4.3-9.7,11.5-10.2c7.1-0.5,12.5,3.3,12.8,11.6C437,673.3,433.5,678.7,424.8,678.9z M743.5,708.1
				c-7.6-0.3-12.3-3.9-12.5-11.9c-0.1-8.6,5.7-13.2,13-13.3c7.9-0.1,12.9,6,12.5,13.8C756.2,703.8,751.8,708.7,743.5,708.1z"/>
		</g>
		<g>
			<path class="st0" d="M497.6,587.2c-7.2-0.6-11.9,3.5-12.1,10.6c-0.3,6.9,3.8,11.8,10.8,12.4c6.5,0.5,10.3-3.7,11.4-10.5
				C507.6,593.1,505,587.9,497.6,587.2z"/>
			<path class="st0" d="M847.9,598.2c-11.3-6.9-31.9-5.9-39.7,5.4c-10.2,14.8-23.3,15.8-38.4,14.7c-3.5-0.3-7.1-0.6-10.5,0
				c-17.5,3.3-29.5-6.3-39.2-18.3c-6.6-8.1-13.6-10.9-23.6-10.9c-51.7,0.3-103.3,0-155,0.3c-8,0-13.5-1.4-18.6-8.8
				c-8.9-13.2-24.3-17.6-36.8-13c-13.7,5.1-22,16.9-21.9,31.1c0.1,13.2,8.8,25.2,21.6,29.9c13.9,5.1,26.9,2.4,36-10.4
				c6-8.5,12.6-10.2,21.9-10.1c46,0.3,92,0.5,137.9-0.1c11.9-0.2,21.5,2,28.5,11.9c10,14.2,23.5,19.2,40.8,17.4
				c12.1-1.3,24.5,0,36.8-0.4c6.8-0.2,11.1,1.5,14.7,8c5.9,10.7,16.1,15.5,22.4,15.7c22.1,0.1,33.6-8.8,38.4-25.2
				C867.1,622.2,860.4,605.9,847.9,598.2z M496.3,610.2c-7-0.5-11.1-5.5-10.8-12.4c0.3-7.1,4.9-11.3,12.1-10.6
				c7.4,0.6,10,5.9,10.1,12.5C506.6,606.5,502.8,610.7,496.3,610.2z M830.1,639.5c-7.8,0-12.4-4.3-12.2-12.2
				c0.2-8.6,6.2-13,13.7-12.8c7.3,0.2,11.1,6.2,12.2,13.5C842.3,635.4,837.7,639.4,830.1,639.5z"/>
		</g>
		<g>
			<path class="st0" d="M767.6,319.8c-13.1-13.4-37.7-13.6-49,1.6c-6.8,9.3-14.1,11.9-24.2,10.6c-26.8-3.4-50.3,1.5-66.5,25.5
				c-3.6,5.3-9.3,5.7-15.2,5.7c-48.2-0.1-96.4-0.1-144.6,0c-6.7,0-11.2-1.4-14.8-7.9c-7.6-13.6-23.4-19.2-38.5-15
				c-14.6,4.1-23.3,16.2-23.1,32.6c0.1,14.5,9.7,27.8,22.9,31.8c13.8,4.1,31.2-0.6,37.1-12.4c4.8-9.4,11.2-10.4,20.1-10.3
				c49.5,0.3,99,0,148.5,0.3c8.6,0.1,15.6-1.8,20.6-8.8c12.4-17.2,28.9-24.1,49.9-20.5c2.5,0.4,5.3,0.3,7.9,0
				c8.2-1,13.1,1.7,17.8,9.3c10.5,16.9,34.6,19.5,49.4,6.6C780.2,356.5,781,333.5,767.6,319.8z M423.9,384.5
				c-7.9-0.4-11.6-5.2-11.2-12.9c0.4-7.8,4.9-12.4,12.4-11.7c7.2,0.6,11.4,5.5,11.7,13C436,380.8,431.7,384.9,423.9,384.5z
				 M744.2,355.4c-7.6,0.6-12.6-3.2-13.1-11.1c-0.5-8.2,4.4-13.9,11.9-14.4c7.7-0.5,12.3,5.3,14,13.4
				C755.4,350,751.5,354.8,744.2,355.4z"/>
		</g>
		<g>
			<path class="st0" d="M854.9,388.6c-12.2-12.9-35.2-15.3-45.6-1.5c-11.7,15.5-25.6,17-42,15.5c-4.3-0.4-8.8,0.5-13.1-0.1
				c-19-2.9-34.2,2.8-45.4,18.7c-6.1,8.6-14.6,10.7-25.1,10.6c-46.4-0.5-92.8-0.5-139.2,0c-9.9,0.1-16.8-1.8-23-10.6
				c-7.5-10.6-19.5-15.9-32.4-12c-11.4,3.4-21.5,9.9-23.7,23.6c-2.8,16.8,3.7,30.8,17.7,36.9c15.3,6.8,30.2,3.4,40.3-11
				c4.8-6.9,9.9-8.4,17.4-8.4c51.7,0.2,103.3-0.1,154.9,0.3c9,0.1,16.2-1.6,21.9-8.9c12.4-16,27.9-25,47.4-19.5
				c18.2-1.4,33.2-2.2,44.8,15.3c8.9,13.4,33.4,10.2,45.6-2.5C867.6,422.1,867.4,401.8,854.9,388.6z M496.9,451.7
				c-7.3-0.1-12.3-5.1-11.9-12.5c0.4-6.3,5.4-9.9,11.7-9.8c7.3,0.1,10.6,4.8,10.9,10.4C507.6,448.3,502.8,451.8,496.9,451.7z
				 M843.4,413.3c-0.8,7.1-5.3,11.9-9.8,11.2c-11.5-1-16-4.9-15.7-12.8c0.3-8.5,6.2-13.1,13.6-12.7
				C839.2,399.3,844.2,405.4,843.4,413.3z"/>
		</g>
	</g>
	<g>
		<path class="st0" d="M627.9,543.8c-1.4-6.9-7.7-4.2-12-4.4c-9.6-0.3-19.3,0.4-28.9-0.3c-8.6-0.6-14.6,2.4-20.6,8.6
			c-18.5,19-43.2,18.2-61.3-1.1c-15.5-16.7-14.2-41.9,3.1-57.4c18.4-16.5,46-14.6,61.6,4.7c3.4,4.2,6.5,6.4,11.9,6.3
			c11.8-0.3,23.7,0,35.5-0.1c3.4,0,6.9,0.5,8.5-4.1c4-11-1.4-21.7-12.5-25.9c-22.9-8.8-46.5-11.1-70.8-9.9c-6.6,0.3-11,1.9-15.3,7.5
			c-11.5,14.7-32,17.4-50.1,7.9c-15.3-8-23.9-26.4-20.1-42.9c4.5-19.7,19.7-32.1,38.6-32.8c15.1-0.6,26.3,5.7,34.8,17.3
			c2.9,3.9,6.4,5.1,10.2,3.7c4.8-1.9,0.8-5.1,0-7.5c-1.5-4.5,1.1-7.7,2.9-11c4.3-7.7,3.1-10.7-6.4-10.5c-21.5,0.4-42.9,0.4-64.4,0
			c-6.7-0.1-11.1,1.9-15.6,7.1c-12.8,14.9-32.2,19.2-48.8,12c-16.9-7.3-24.9-20.7-24.5-40.9c0.3-16.7,9.6-30,25.4-36.4
			c15.4-6.2,34.3-2.1,46.1,10c4.1,4.2,6.4,9.8,14.3,9.7c28.9-0.6,57.8-0.2,86.7-0.3c2.9,0,6.5,1.1,8.2-2.5c1.8-4-1.1-6.6-3.5-9.1
			C550,330.8,539,320,528,309.3c-21.3-20.6-21.3-20.6-47-7.5c-3.5,1.8-7.4,3.1-10.5,5.4c-18.7,14-37.7,14.1-58.3,3.6
			c-8.3-4.3-14.4-9-17.5-17.9c-4.8-13.6-10.4-26.9-15.2-40.5c-3.3-9.1-9.2-12.8-19-12.6c-19.2,0.5-38.3,4.1-57.6,2.6
			c-9.7-0.8-14.2,3.8-16.8,12.6c-4.7,15.9-10.3,31.6-15.5,47.4c-1.8,5.7-4.6,9.7-10.9,11.9c-9.5,3.3-18.6,7.7-27.6,12.2
			c-4.4,2.2-8,1.7-12.3-0.2c-15.1-6.9-30.6-13.1-45.5-20.4c-8-3.9-13.8-2.9-19.7,3.6c-13.9,15.2-27.9,30.2-42.2,45
			c-5.8,6-5.9,12.1-2.3,19.1c5.8,11.3,10.1,23.7,17.5,33.8c10.1,13.8,6.2,25.9,1.7,40.1c-5.2,16.5-14.9,25.4-31.2,29.5
			c-10.1,2.5-19.4,7.9-29.3,11.3c-10.3,3.5-14.2,10.2-13.5,21c1.3,19.2,1.9,38.4,2.5,57.6c0.3,7.5,3.5,12.4,10.7,14.6
			c12.1,3.7,24.3,7.2,36.3,11.3c7,2.4,17.5,2,20.1,8.2c7.6,18.1,26.9,34.2,12.3,57.3c-3.5,5.5-5.4,11.9-8.1,17.9
			c-13.1,28.7-13.1,28.7,9.3,50.5c3.5,3.4,6.9,6.7,10.3,10.1c27.8,27.5,28.7,29,62.6,9.4c21.5-12.4,40.1-13.9,61.9-2.5
			c8.2,4.3,13,8.5,16,17c4.7,13.6,10.6,26.8,15.7,40.3c3.2,8.4,8.8,12.5,18,12.1c20.5-1,41-1.8,61.5-2.5c7.1-0.3,10.8-3.6,12.9-10.6
			c4.8-16.4,10.4-32.5,15.6-48.7c1.2-3.8,2-8.3,5.8-10c20.5-9.1,40.1-24.2,64.1-6.7c8.3,6,19.1,8.5,28.6,12.9
			c6.9,3.2,12,2.3,17.3-3.6c14.1-15.6,28.6-30.7,43-46c2.8-3,5.6-6.2,3.7-10.4c-2.1-4.8-6.8-3-10.5-3c-29.3-0.1-58.7,0.2-88.1-0.2
			c-8.5-0.1-14.1,1.9-19.9,9c-18,22.3-54.2,19.3-68.1-4.9c-11.3-19.5-5.8-43.5,13-57.2c16.3-11.8,38.1-8.8,53.4,7
			c3.7,3.8,5.6,9.6,13,9.5c28.9-0.4,57.8-0.2,88.7-0.2c-3.7-7.8-6-13.4-9-18.7c-2-3.4,4.8-9.5-3.2-10.4c-6.5-0.7-12.1-0.5-17.2,6.1
			c-10.2,13.3-24.8,17.6-41,13.6c-17.5-4.3-29.9-20.2-31.1-38.1c-1-14.4,10.3-31.9,25-38.7c15.1-7,33-3.3,46,9.2
			c3.3,3.2,4.8,8,10.8,8.7c30.4,3.7,57.9-5.5,84.6-18.3C629.1,557.5,629.3,550.4,627.9,543.8z M343,637.2
			c-59.6,2.9-113.1-46.7-113.1-109.7c0-65.4,51.2-113,115-112.1c57.5,0.8,109.7,49,109.3,111.4C453.6,590,401.3,639.8,343,637.2z"/>
		<path class="st0" d="M344,450.3c-41.8-0.4-77.7,33.5-78.3,73.8c-0.6,42.3,33.7,78.2,75,78.6c41.5,0.4,76.9-33.8,77.4-74.7
			C418.6,486.2,384.6,450.6,344,450.3z M341.1,568.5c-22.7-0.3-41.4-19.4-41.3-42.2c0-22.7,18.9-41.7,41.6-41.9
			c23.7-0.2,42.5,18.4,42.5,42.2C384,550.2,364.9,568.8,341.1,568.5z"/>
	</g>
</g>
<g>
	<path class="st0" d="M1458.9,719.3c-13.9,0-27.8,0.1-41.7,0c-19.3-0.1-32.1-11.4-32.5-30.3c-0.6-29.7-0.6-59.5,0-89.3
		c0.3-18.5,13-30.3,31.2-30.4c29.4-0.2,58.7-0.2,88.1,0c20.5,0.2,31.7,12.6,30.8,32.4c-0.3,6.3-2.6,8.8-8.6,8
		c-7.5-1-18.4,4.7-19.2-10c-0.1-2.6-4.7-2.1-7.4-2.1c-26.2,0-52.4,0.1-78.6-0.1c-6.3,0-8.3,2.4-8.2,8.5c0.2,25.4,0.2,50.8,0,76.2
		c-0.1,6.8,2.5,8.9,9.1,8.9c25.8-0.2,51.6-0.2,77.4,0c6.6,0.1,9.6-2.1,9-8.9c-0.3-4.3-0.2-8.7,0-13.1c0.2-5.2-2.2-7.1-7.2-6.9
		c-4.8,0.2-9.6-0.5-14.3,0.1c-11.8,1.7-14.5-3.4-14.4-14.6c0.1-11,3.4-14.9,14.4-14.1c11.8,0.8,23.8,0.6,35.7,0
		c8.9-0.5,13,1.7,12.4,11.7c-0.9,14.6-0.1,29.3-0.2,44c-0.1,18.5-10.6,29.4-29.4,29.8C1489.9,719.6,1474.4,719.3,1458.9,719.3z"/>
	<path class="st0" d="M2005.3,390.5c0-21.8,0.2-43.6-0.1-65.5c-0.1-7.2,2.1-9.7,9.5-9.6c39.7,0.3,79.4,0.5,119-0.1
		c13.2-0.2,9.4,8.4,9.8,15.2c0.4,7.2,1.4,14-10.2,13.7c-29.3-0.8-58.7,0-88.1-0.4c-8.6-0.1-12,2-11.7,11.2
		c0.8,24.2-2.4,20,20.2,20.3c19.4,0.2,38.9,0.6,58.3-0.1c13-0.5,9.8,8.1,10,15c0.2,7,1.9,14.2-10,13.8c-22.2-0.9-44.4,0.1-66.6-0.4
		c-8.3-0.2-12,1.4-11.9,10.9c0.3,22.8-0.2,22.8,22.6,22.8c25.8,0,51.6,0.5,77.3-0.2c12.9-0.4,9.9,8,10.1,15c0.1,6.9,2,14.1-10,13.9
		c-39.3-0.7-78.6-0.5-117.8-0.1c-8.6,0.1-10.7-3-10.5-11C2005.6,433.4,2005.3,411.9,2005.3,390.5z"/>
	<path class="st0" d="M1440.8,390.8c0-21.4,0.3-42.9-0.1-64.3c-0.1-7.8,1.6-11.2,10.4-11.1c39.3,0.4,78.6,0.6,117.8-0.1
		c11.9-0.2,10.4,6.6,10.1,13.7c-0.3,6.9,3.1,15.4-10,15.1c-29.3-0.7-58.7,0.2-88.1-0.4c-9.6-0.2-12.3,2.9-11.9,12.2
		c0.8,22.7-2.3,19.2,19.9,19.4c19.4,0.2,38.9,0.3,58.3-0.1c7.4-0.1,10.7,1.7,10.5,9.9c-0.6,22.4,1.4,18.3-18.3,18.5
		c-20.2,0.2-40.5,0.3-60.7-0.1c-7.1-0.1-9.8,2-9.7,9.4c0.7,29.8-3.4,23.8,23.3,24.2c25,0.4,50,0.7,75-0.2
		c11.2-0.4,12.4,4.8,11.7,13.5c-0.6,7.5,2.5,15.6-11,15.4c-38.9-0.8-77.8-0.5-116.6-0.1c-8.2,0.1-11.1-2.2-10.9-10.7
		C1441.2,433.6,1440.8,412.2,1440.8,390.8z"/>
	<path class="st0" d="M1765.7,608.6c0,35.4-0.5,67.2,0.2,98.8c0.2,10.7-4,12.4-13.2,12.1c-8.3-0.3-14,0.1-13.8-11.5
		c0.7-42.4,0.6-84.9,0-127.3c-0.1-10,3.7-11.4,12.4-11.8c11.4-0.4,19.6,2,27.3,11.7c23.1,29.1,47.5,57.2,71.5,85.6
		c2.7,3.2,4.9,7.1,10.8,8.9c0-23.8,0-47,0-70.2c0-6.7,0-13.5,0-20.2c0-15.5,0-14.9,15.2-15.7c10.2-0.5,13.6,2.2,13.4,13
		c-0.7,42-0.5,84.1-0.1,126.1c0.1,9-3.1,10.1-11.4,11.6c-22.7,4.1-30-14-40.8-26.4C1813.8,666.3,1791,638.6,1765.7,608.6z"/>
	<path class="st0" d="M1208.4,633.8c0-17.9,0.3-35.7-0.1-53.5c-0.2-7.9,1.6-11.4,10.4-11.2c21.4,0.7,17.9-1.3,18.1,17.6
		c0.2,31.3,0.2,62.7-0.1,94c-0.1,7.5,1.9,10.6,10,10.4c25-0.4,50-0.5,75,0c8.5,0.2,10.7-2.9,10.6-11c-0.4-32.9,0.4-65.9-0.5-98.8
		c-0.3-12,5.2-12.6,14.2-12.2c8.2,0.3,15.1-1.1,14.8,11.7c-0.9,33.3-0.1,66.6-0.3,100c-0.2,26.7-10.8,39.7-38.8,38.8
		c-26.5-0.9-53.1-0.1-79.7-0.2c-21.1-0.1-33.1-12-33.4-33.1C1208.2,668.7,1208.4,651.2,1208.4,633.8z"/>
	<path class="st0" d="M1004.9,315.6c17.9,0,35.7,0.4,53.6-0.2c8.3-0.2,11.1,2.4,10.8,10.7c-0.7,20.9,1.5,17.6-17.9,17.7
		c-31.7,0.2-63.5,0.3-95.2-0.1c-8.3-0.1-11,2.5-10.8,10.8c0.5,24.2,0.4,48.4,0,72.6c-0.1,7.8,2.5,10.3,10.2,10.2
		c33.7-0.3,67.5,0.4,101.2-0.4c13.2-0.3,12.1,7,12.6,15.8c0.5,9.3-1.6,13.3-12.2,13.1c-35.3-0.7-70.6-0.2-105.9-0.3
		c-21.5-0.1-32.1-10.8-32.2-32.2c-0.1-28.6-0.1-57.1,0-85.7c0.1-21.3,10.8-31.9,32.3-32.1C969.2,315.5,987.1,315.6,1004.9,315.6z"/>
	<path class="st0" d="M1911.1,315.6c21.4,0,42.9,0.7,64.2-0.3c13.3-0.6,10.7,7.6,11.1,15.2c0.5,8.6-0.2,14.5-11.6,13.6
		c-12.2-1-24.6,0.4-36.8-0.4c-9.9-0.7-11.9,3.3-11.8,12.3c0.4,32.1-0.4,64.2,0.5,96.3c0.3,11.7-3.9,13.9-14.3,13.5
		c-9.3-0.3-15.2-0.3-14.8-13c1.1-32.1,0-64.2,0.5-96.3c0.2-9.6-2.1-13.5-12.4-12.9c-13,0.9-26.2-0.3-39.2,0.4
		c-8.6,0.4-11.5-2.9-10.5-11c0.3-2.7,0.3-5.6,0-8.3c-0.9-7.5,2.6-9.5,9.6-9.4C1867.5,315.8,1889.3,315.6,1911.1,315.6z"/>
	<path class="st0" d="M1251.6,315.6c-20,27.2-37.5,52.6-56.8,76.4c-10.4,12.9-15.6,25.9-13.6,42.2c0.8,6.2-0.5,12.7,0.2,19
		c1.1,10-2.8,12.5-12.6,12.8c-11.7,0.4-15.8-3.4-14.1-14.7c4.5-28.9-4.5-52.6-24.3-74.3c-16.3-18-29.4-39-44.1-59
		c21.2-6.5,30.4-3.4,43,12.9c10.6,13.8,21.8,27.1,32.6,40.8c4.4,5.5,7.5,6.7,12.4,0c10.6-14.3,22.5-27.6,32.9-42
		c7.3-10.1,15.1-16.6,28.4-14.1C1239.9,316.2,1244.3,315.6,1251.6,315.6z"/>
	<g>
		<path class="st0" d="M1410.5,388.3c-1.3-2.5-1.7-4.9-1.5-7.9c0.6-11.5,0.9-22.9,0.7-34.4c-0.2-17.4-12.7-30.3-29.9-30.4
			c-35.3-0.3-70.5,0.1-105.8-0.2c-7.3-0.1-9.6,2.3-9.5,9.6c0.4,21.8,0.1,43.6,0.1,65.4c0,21.8,0.2,43.6-0.1,65.4
			c-0.1,6.7,1.3,10,9.1,10c37.2-0.3,74.5,0,111.7-0.2c14.7-0.1,26.5-8.2,28.8-20.3C1417.7,426.1,1419.9,406.7,1410.5,388.3z
			 M1290.5,368.5c0.7-30.5-3.7-24,24-24.5c20.1-0.4,40.3,0.2,60.5-0.2c7.8-0.2,11.4,1.6,11.1,10.4c-0.9,28.4,3.4,22.9-22.8,23.4
			c-8.7,0.2-17.4,0-26.1,0c-12.3,0-24.5-0.3-36.8,0.1C1293.6,377.9,1290.3,376.1,1290.5,368.5z M1388.4,413.8
			c-0.9,28.4,3.4,22.9-22.8,23.4c-8.7,0.2-17.4,0-26.1,0c-12.3,0-24.5-0.3-36.8,0.1c-6.8,0.2-10.1-1.5-9.9-9.2
			c0.7-30.5-3.7-24,24-24.5c20.1-0.4,40.3,0.2,60.5-0.2C1385.1,403.2,1388.7,405,1388.4,413.8z"/>
	</g>
	<g>
		<path class="st0" d="M2317.4,376.7c0-10.7,0.1-21.4-0.1-32.1c-0.3-16.5-10.6-28.4-27.1-28.7c-38.5-0.7-77-0.2-115.5-0.3
			c-5.7,0-7.6,2.2-7.6,7.8c0.1,44.8,0.1,89.7,0,134.5c0,5.4,1.7,8.2,7.5,7.8c3.6-0.2,7.2-0.3,10.7,0c7.6,0.8,10.7-1.9,10.3-9.9
			c-0.6-11.5-0.2-23-0.1-34.5c0-3.6-0.3-7.8,4.9-7.8c13.9-0.2,27.8-0.1,41.7,0c3.1,0,4.9,2.4,6.7,4.5c9,11,18.2,21.9,26.9,33.2
			c7.9,10.3,16.7,17.7,30.8,14.5c3.6-0.8,8.5,1.9,10.5-3.1c1.7-4.4-1.7-7.5-4.1-10.5c-9.9-12.3-19.9-24.4-31-38
			C2309.7,411.2,2317.4,402.8,2317.4,376.7z M2260.6,384.8c-5.9,0-11.9,0-17.8,0c-12.6,0-25.3-0.3-37.9,0.1
			c-7.4,0.3-9.3-2.7-9.5-9.7c-0.8-31.3-1-31.3,30.4-31.3c18.2,0,36.4,0.2,54.6-0.1c7.2-0.1,10.5,1.4,10.7,9.7
			C2291.7,384.8,2292,384.8,2260.6,384.8z"/>
	</g>
	<g>
		<path class="st0" d="M1752.9,376.5c0-9.5,0-19,0-28.6c-0.1-21.5-10.7-32.3-32.1-32.4c-35.7-0.1-71.4,0.3-107.1-0.2
			c-9.2-0.1-11.2,3.1-11.1,11.6c0.4,40.1,0.2,80.1,0.2,120.2c0,19.3,0,19,19.5,18.5c6.7-0.2,9.2-2.3,9-9c-0.4-11.9,0-23.8-0.1-35.7
			c-0.1-5.4,1.7-8,7.5-7.9c12.3,0.2,24.6,0.1,36.9,0c4,0,6.7,2,9,4.9c9,11.1,18.2,21.9,26.8,33.2c7.9,10.3,16.8,17.6,30.8,14.4
			c3.3-0.8,7.6,1.5,9.8-2.2c2.6-4.2-0.6-7.5-3.1-10.6c-10.2-12.5-20.4-25-31.6-38.9C1745.2,411.3,1752.9,402.8,1752.9,376.5z
			 M1696.6,384.8c-5.9,0-11.9,0-17.8,0c-12.3,0-24.5-0.4-36.8,0.1c-7.9,0.3-11.1-1.7-11.2-10.4c-0.3-30.6-0.6-30.6,30-30.6
			c18.2,0,36.4,0.3,54.6-0.1c7.9-0.2,11.1,1.7,11.2,10.4C1726.9,384.8,1727.2,384.8,1696.6,384.8z"/>
	</g>
	<g>
		<path class="st0" d="M1713.1,708.4c-0.5-17-0.1-34.1-0.1-51.1c0-17.4,0.1-34.9,0-52.3c-0.3-24.5-11.5-35.7-35.7-35.7
			c-27.4,0-54.7,0-82.1,0c-20.8,0-33.1,9.5-33.8,30c-1.2,37.6-0.4,75.3-0.5,113c0,5.1,2.1,7.2,7.1,7c4-0.2,8-0.3,11.9,0
			c7.3,0.7,9.9-2.2,9.5-9.5c-0.5-9.1,0.5-18.3-0.3-27.3c-0.9-10.1,1.9-14.2,12.9-13.5c16.6,1,33.3-0.1,49.9,0.4
			c10.5,0.3,24-4.9,30.7,2.5c6.1,6.6,1.6,19.7,1.8,30c0.5,19-3.3,16.9,18,17.6C1711.2,719.7,1713.4,716.5,1713.1,708.4z
			 M1684.7,631.7c0.5,7.5-2.8,9.5-9.8,9.3c-12.6-0.4-25.3-0.1-38-0.1s-25.3-0.3-38,0.1c-6.9,0.2-10.3-1.7-9.8-9.3
			c0.5-8.3,0.5-16.6,0-24.9c-0.5-7.5,2.8-9.4,9.8-9.3c25.3,0.3,50.6,0.3,76,0c6.9-0.1,10.3,1.7,9.8,9.3
			C1684.2,615.1,1684.2,623.4,1684.7,631.7z"/>
	</g>
	<g>
		<path class="st0" d="M2493.4,345.3c-0.1-16.9-11.9-29.4-29-29.6c-30.5-0.4-61.1-0.4-91.6,0c-17.8,0.2-29.4,12.5-29.6,30.3
			c-0.1,17.8,0,35.7,0,53.5c0,19,0.5,38.1-0.2,57.1c-0.4,11.6,7.3,8.9,13.5,9c6.5,0.1,14,2.1,13.3-9.2c-0.7-10.7,0-21.4-0.2-32.1
			c-0.1-5.8,1.4-8.8,7.9-8.7c26.6,0.2,53.1,0.2,79.7,0c6.6,0,7.9,3.2,7.8,8.8c-0.2,10.3,0.6,20.7-0.2,30.9
			c-1.1,12.8,7.5,10.2,14.6,10.4c7.7,0.2,14.5,1.4,14.2-10.9C2493,418.3,2493.6,381.8,2493.4,345.3z M2432.6,387.2
			c-17.5,0-34.9-0.3-52.4,0.1c-7.4,0.2-10.4-1.8-10.6-9.9c-0.7-33.5-1-33.5,32.1-33.5c5.6,0,11.1,0,16.7,0c12.3,0,24.6,0.3,36.9-0.1
			c6.9-0.2,9.7,1.7,10,9.3C2466.5,387.2,2466.7,387.2,2432.6,387.2z"/>
	</g>
	<g>
		<path class="st0" d="M2065.7,600.2c-0.1-18.5-11.8-30.8-30.2-30.9c-36.9-0.3-73.8,0.1-110.7-0.2c-7.4-0.1-9.5,2.6-9.4,9.7
			c0.3,21.8,0.1,43.6,0.1,65.4s0.2,43.6-0.1,65.4c-0.1,7.1,1.9,9.8,9.4,9.7c36.9-0.3,73.8,0,110.7-0.2c18.4-0.1,30.1-12.4,30.2-30.9
			C2065.8,659,2065.8,629.6,2065.7,600.2z M2037.4,681.8c0.1,6.5-1.9,9.3-8.8,9.2c-25.8-0.3-51.6-0.2-77.4,0c-6.4,0-9.4-1.7-9.3-8.7
			c0.3-25.4,0.3-50.8,0-76.2c-0.1-7.1,3.1-8.7,9.4-8.6c13.1,0.3,26.2,0.1,39.3,0.1c12.3,0,24.6,0.3,36.9-0.1c6.9-0.2,10,1.7,9.9,9.3
			C2037.1,631.8,2037.2,656.8,2037.4,681.8z"/>
	</g>
	<g>
		<path class="st0" d="M2242.3,709.4c-0.8-18.6-0.2-37.2-0.2-55.9c0-18.2,0.1-36.5,0-54.7c-0.2-17.7-11-29.2-28.8-29.4
			c-30.9-0.5-61.8-0.4-92.7,0c-14.9,0.2-28,12.3-28.3,27c-0.6,38.4-0.2,76.9-0.3,115.3c0,5.7,2.2,7.9,7.8,7.6c3.9-0.2,8-0.3,11.9,0
			c6.8,0.6,9.1-2.3,8.9-9c-0.4-10.7,0.2-21.4-0.2-32.1c-0.2-6.5,1.8-9.2,8.7-9.1c26.2,0.3,52.3,0.2,78.5,0c6.2,0,8.4,2.2,8.3,8.4
			c-0.3,10.7,0.5,21.5-0.2,32.1c-0.8,11,6.2,9.7,12.9,9.6C2235.2,719.1,2242.8,721.4,2242.3,709.4z M2183.6,640.9
			c-5.1,0-10.3,0-15.4,0c-13,0-26.1-0.2-39.1,0.1c-6.7,0.2-8.7-2.4-9-9c-1.5-34.4-1.7-34.4,32.1-34.4c18.2,0,36.4,0.2,54.6-0.1
			c6.7-0.1,8.7,2.4,9,9C2217.2,640.9,2217.4,640.9,2183.6,640.9z"/>
	</g>
</g>
</svg>
